HIERARCHY
ROOT Hips
{
	OFFSET 0.00000 0.00000 0.00000
	CHANNELS 6 Xposition Yposition Zposition Zrotation Yrotation Xrotation 
	JOINT LHipJoint
	{
		OFFSET 0 0 0
		CHANNELS 3 Zrotation Yrotation Xrotation
		JOINT LeftUpLeg
		{
			OFFSET 1.57338 -1.94743 0.52196
			CHANNELS 3 Zrotation Yrotation Xrotation
			JOINT LeftLeg
			{
				OFFSET 2.60333 -7.15259 0.00000
				CHANNELS 3 Zrotation Yrotation Xrotation
				JOINT LeftFoot
				{
					OFFSET 2.77855 -7.63400 0.00000
					CHANNELS 3 Zrotation Yrotation Xrotation
					JOINT LeftToeBase
					{
						OFFSET 0.19847 -0.54529 2.28466
						CHANNELS 3 Zrotation Yrotation Xrotation
						End Site
						{
							OFFSET 0.00000 -0.00000 1.17993
						}
					}
				}
			}
		}
	}
	JOINT RHipJoint
	{
		OFFSET 0 0 0
		CHANNELS 3 Zrotation Yrotation Xrotation
		JOINT RightUpLeg
		{
			OFFSET -1.61527 -1.94743 0.52196
			CHANNELS 3 Zrotation Yrotation Xrotation
			JOINT RightLeg
			{
				OFFSET -2.53829 -6.97390 0.00000
				CHANNELS 3 Zrotation Yrotation Xrotation
				JOINT RightFoot
				{
					OFFSET -2.80762 -7.71387 0.00000
					CHANNELS 3 Zrotation Yrotation Xrotation
					JOINT RightToeBase
					{
						OFFSET -0.30536 -0.83898 2.28801
						CHANNELS 3 Zrotation Yrotation Xrotation
						End Site
						{
							OFFSET -0.00000 -0.00000 1.21323
						}
					}
				}
			}
		}
	}
	JOINT LowerBack
	{
		OFFSET 0 0 0
		CHANNELS 3 Zrotation Yrotation Xrotation
		JOINT Spine
		{
			OFFSET -0.04381 1.99497 -0.19778
			CHANNELS 3 Zrotation Yrotation Xrotation
			JOINT Spine1
			{
				OFFSET -0.01959 2.01295 -0.04372
				CHANNELS 3 Zrotation Yrotation Xrotation
				JOINT Neck
				{
					OFFSET 0 0 0
					CHANNELS 3 Zrotation Yrotation Xrotation
					JOINT Neck1
					{
						OFFSET -0.05459 1.76913 0.09708
						CHANNELS 3 Zrotation Yrotation Xrotation
						JOINT Head
						{
							OFFSET 0.09461 1.77368 -0.11172
							CHANNELS 3 Zrotation Yrotation Xrotation
							End Site
							{
								OFFSET 0.03812 1.78157 -0.04834
							}
						}
					}
				}
				JOINT LeftShoulder
				{
					OFFSET 0 0 0
					CHANNELS 3 Zrotation Yrotation Xrotation
					JOINT LeftArm
					{
						OFFSET 3.50922 1.24034 -0.28866
						CHANNELS 3 Zrotation Yrotation Xrotation
						JOINT LeftForeArm
						{
							OFFSET 5.40188 -0.00000 0.00000
							CHANNELS 3 Zrotation Yrotation Xrotation
							JOINT LeftHand
							{
								OFFSET 3.68559 -0.00000 0.00000
								CHANNELS 3 Zrotation Yrotation Xrotation
								JOINT LeftFingerBase
								{
									OFFSET 0 0 0
									CHANNELS 3 Zrotation Yrotation Xrotation
									JOINT LeftHandIndex1
									{
										OFFSET 0.61753 -0.00000 0.00000
										CHANNELS 3 Zrotation Yrotation Xrotation
										End Site
										{
											OFFSET 0.49787 -0.00000 0.00000
										}
									}
								}
								JOINT LThumb
								{
									OFFSET 0 0 0
									CHANNELS 3 Zrotation Yrotation Xrotation
									End Site
									{
										OFFSET 0.50547 -0.00000 0.50547
									}
								}
							}
						}
					}
				}
				JOINT RightShoulder
				{
					OFFSET 0 0 0
					CHANNELS 3 Zrotation Yrotation Xrotation
					JOINT RightArm
					{
						OFFSET -2.95373 1.39649 -0.27346
						CHANNELS 3 Zrotation Yrotation Xrotation
						JOINT RightForeArm
						{
							OFFSET -6.10670 -0.00000 -0.00000
							CHANNELS 3 Zrotation Yrotation Xrotation
							JOINT RightHand
							{
								OFFSET -3.63052 -0.00000 0.00000
								CHANNELS 3 Zrotation Yrotation Xrotation
								JOINT RightFingerBase
								{
									OFFSET 0 0 0
									CHANNELS 3 Zrotation Yrotation Xrotation
									JOINT RightHandIndex1
									{
										OFFSET -0.58385 -0.00000 0.00000
										CHANNELS 3 Zrotation Yrotation Xrotation
										End Site
										{
											OFFSET -0.47071 -0.00000 0.00000
										}
									}
								}
								JOINT RThumb
								{
									OFFSET 0 0 0
									CHANNELS 3 Zrotation Yrotation Xrotation
									End Site
									{
										OFFSET -0.47790 -0.00000 0.47790
									}
								}
							}
						}
					}
				}
			}
		}
	}
}
MOTION
Frames: 15
Frame Time: .0083333
0.321 18.9189 -13.1335 0 0 0 0 0 0 -21 0 0 0 0 0 0 0 0 0 0 0 0 0 0 21 0 0 0 0 0 0 0 0 0 0 0 0 0 0 0 0 0 0 0 0 0 0 -16 0 0 21 0 0 11 0 0 0 -8 0 0 0 0 0 0 0 0 0 0 0 0 0 0 0 0 0 0 0 0 8 0 0 0 0 0 0 0 0 0 0 0 0 0 0 0 0 0
0.3210 18.9189 -13.1335 0.2987 -7.4015 2.3575 0.0000 0.0000 0.0000 -20.2202 -7.5308 2.5370 0.4103 4.1118 11.3915 -0.0243 14.0877 -19.7383 0.0423 -1.3274 -3.6502 0.0000 0.0000 0.0000 20.5495 21.7241 3.5842 -0.7160 -5.4073 15.0740 0.0739 -13.2463 -17.9072 -0.0492 1.4308 -3.9349 -1.4816 0.4580 1.2708 -0.9115 0.5712 -0.6427 -0.1172 0.2944 -1.3756 -10.6379 -6.0587 -7.9869 9.2507 -8.2266 14.2652 4.0116 -3.9070 6.4663 0.0000 0.0000 0.0000 -89.0553 0.6471 0.3071 10.3484 -17.2826 -1.5769 -0.0000 -0.0000 8.8108 19.6799 24.6583 8.4868 -7.1250 0.0000 -0.0000 -10.6038 55.6564 -2.7957 0.0000 0.0000 0.0000 84.7426 -2.7371 25.6723 -13.6656 22.2547 -2.7002 0.0000 0.0000 18.5964 -24.8831 2.2656 -1.0505 7.1250 -0.0000 -0.0000 1.3107 -27.4819 0.5581
0.3206 18.9170 -13.1314 0.3707 -7.3970 2.3547 0.0000 0.0000 0.0000 -20.2904 -7.4957 2.4994 0.4120 4.1203 11.4153 -0.0175 14.0329 -19.7383 0.0420 -1.3226 -3.6370 0.0000 0.0000 0.0000 20.4704 21.6746 3.5660 -0.7231 -5.4337 15.1497 0.0617 -13.1825 -17.9707 -0.0497 1.4391 -3.9577 -1.5548 0.4754 1.3188 -0.9288 0.5904 -0.7158 -0.0952 0.3054 -1.4783 -10.7513 -6.0454 -7.8219 9.3604 -8.2250 14.2373 4.0702 -3.9093 6.4379 -0.0000 -0.0000 0.0000 -89.0545 0.8205 0.4730 10.3888 -17.3454 -1.5889 -0.0000 -0.0000 8.6814 19.6203 24.7812 8.4983 -7.1250 0.0000 -0.0000 -10.7222 55.7685 -2.8567 -0.0000 -0.0000 0.0000 84.7170 -2.8978 25.6699 -13.6767 22.2706 -2.7044 0.0000 0.0000 18.6112 -21.1245 -3.1801 1.2278 7.1250 -0.0000 -0.0000 4.4745 -33.3645 1.2796
0.3204 18.9158 -13.1304 0.3685 -7.3589 2.3842 0.0000 0.0000 0.0000 -20.2762 -7.4851 2.4007 0.4187 4.1533 11.5084 -0.0122 13.9744 -19.7166 0.0437 -1.3496 -3.7114 0.0000 0.0000 0.0000 20.4630 21.6024 3.5703 -0.7202 -5.4230 15.1190 0.0588 -13.1602 -17.9745 -0.0459 1.3822 -3.8010 -1.5517 0.4678 1.3057 -0.9234 0.5801 -0.7531 -0.0913 0.3005 -1.5091 -10.8499 -6.0292 -7.7132 9.4479 -8.2086 14.1609 4.1191 -3.9037 6.4008 -0.0000 -0.0000 0.0000 -89.0575 0.9081 0.5582 10.4159 -17.3874 -1.5970 -0.0000 -0.0000 8.5962 19.5422 24.8898 8.4965 -7.1250 0.0000 -0.0000 -10.8538 55.8622 -2.9172 -0.0000 -0.0000 0.0000 84.6820 -3.0143 25.7011 -13.7687 22.4031 -2.7393 0.0000 0.0000 18.8555 -24.5742 1.7633 -0.8062 7.1250 -0.0000 -0.0000 1.5499 -28.0398 0.6396
0.3197 18.9159 -13.1266 0.3300 -7.3749 2.4225 0.0000 0.0000 0.0000 -20.2446 -7.5259 2.3828 0.4217 4.1678 11.5493 -0.0161 14.0268 -19.7457 0.0481 -1.4161 -3.8945 0.0000 0.0000 0.0000 20.5038 21.6467 3.5603 -0.7208 -5.4252 15.1254 0.0601 -13.1781 -17.9844 -0.0460 1.3839 -3.8058 -1.5254 0.4623 1.2306 -0.9066 0.5754 -0.7450 -0.0879 0.2977 -1.4585 -10.8915 -6.0339 -7.7633 9.4508 -8.2035 14.1425 4.1260 -3.9018 6.4052 0.0000 0.0000 0.0000 -89.0534 0.8694 0.4979 10.3902 -17.3476 -1.5893 -0.0000 -0.0000 8.6329 19.5715 24.8735 8.5050 -7.1250 0.0000 -0.0000 -10.8157 55.8518 -2.9040 0.0000 0.0000 0.0000 84.6584 -3.0029 25.6301 -13.8725 22.5521 -2.7790 0.0000 0.0000 19.4882 -24.0902 1.2953 -0.5791 7.1250 -0.0000 -0.0000 1.9292 -28.5589 0.7726
0.3200 18.9157 -13.1219 0.2896 -7.4200 2.4198 0.0000 0.0000 0.0000 -20.2246 -7.5745 2.4232 0.4253 4.1856 11.5994 -0.0049 14.0513 -19.9079 0.0418 -1.3199 -3.6295 0.0000 0.0000 0.0000 20.5481 21.6323 3.5862 -0.7192 -5.4192 15.1080 0.0534 -13.1126 -17.9742 -0.0458 1.3818 -3.8000 -1.4573 0.4818 1.1958 -0.9211 0.6033 -0.7359 -0.1412 0.3107 -1.4290 -10.8264 -6.0343 -7.7256 9.4377 -8.2087 14.0582 4.1113 -3.9031 6.3692 0.0000 -0.0000 0.0000 -89.0116 0.8120 0.3556 10.3388 -17.2678 -1.5740 -0.0000 -0.0000 8.7879 19.5541 24.7892 8.4703 -7.1250 0.0000 -0.0000 -10.7947 55.7630 -2.8749 0.0000 -0.0000 0.0000 84.7236 -2.9870 25.4707 -13.9074 22.6022 -2.7924 0.0000 0.0000 19.8605 -23.2241 0.0345 -0.0148 7.1250 -0.0000 -0.0000 2.6324 -29.9370 0.9684
0.3195 18.9155 -13.1195 0.3197 -7.4004 2.4032 0.0000 0.0000 0.0000 -20.2680 -7.6195 2.4563 0.4268 4.1929 11.6201 0.0012 14.0501 -19.9760 0.0372 -1.2452 -3.4237 0.0000 0.0000 0.0000 20.5249 21.6134 3.6226 -0.7176 -5.4135 15.0918 0.0492 -13.1249 -18.0464 -0.0484 1.4200 -3.9053 -1.4903 0.4717 1.2053 -0.9302 0.5888 -0.7398 -0.1319 0.3038 -1.4384 -10.8047 -6.0215 -7.7171 9.4272 -8.1921 14.0419 4.1062 -3.8950 6.3594 0.0000 0.0000 0.0000 -89.0130 0.8033 0.2841 10.3222 -17.2419 -1.5691 -0.0000 -0.0000 8.8290 19.5798 24.8340 8.4963 -7.1250 0.0000 -0.0000 -10.7886 55.8135 -2.8866 0.0000 0.0000 0.0000 84.7309 -2.9634 25.4674 -13.8830 22.5672 -2.7830 0.0000 0.0000 19.8384 -23.2334 0.0871 -0.0374 7.1250 -0.0000 -0.0000 2.6236 -29.8799 0.9687
0.3186 18.9163 -13.1186 0.3183 -7.3965 2.4013 0.0000 0.0000 0.0000 -20.2739 -7.6629 2.4741 0.4282 4.1995 11.6385 -0.0016 14.0850 -19.9928 0.0374 -1.2485 -3.4327 0.0000 0.0000 0.0000 20.5284 21.6078 3.6328 -0.7159 -5.4073 15.0739 0.0473 -13.1483 -18.1039 -0.0499 1.4419 -3.9655 -1.5054 0.4698 1.2326 -0.9254 0.5854 -0.7498 -0.1187 0.3024 -1.4642 -10.7869 -6.0143 -7.7272 9.3923 -8.1774 14.0332 4.0931 -3.8891 6.3546 0.0000 -0.0000 0.0000 -89.0151 0.8950 0.4430 10.3859 -17.3410 -1.5881 -0.0000 -0.0000 8.6551 19.6458 25.0451 8.5937 -7.1250 0.0000 -0.0000 -10.8185 56.0401 -2.9544 0.0000 -0.0000 0.0000 84.7216 -2.9507 25.5427 -13.8842 22.5689 -2.7835 0.0000 0.0000 19.7446 -23.1785 -0.0303 0.0130 7.1250 -0.0000 -0.0000 2.6702 -30.0073 0.9779
0.3184 18.9157 -13.1174 0.3227 -7.4100 2.4278 0.0000 0.0000 0.0000 -20.2914 -7.7631 2.4860 0.4280 4.1986 11.6362 -0.0097 14.1778 -20.0331 0.0405 -1.2983 -3.5698 0.0000 0.0000 0.0000 20.5206 21.6710 3.6161 -0.7163 -5.4087 15.0781 0.0536 -13.1814 -18.0718 -0.0456 1.3781 -3.7899 -1.5035 0.4734 1.2111 -0.9378 0.5907 -0.7339 -0.1323 0.3048 -1.4358 -10.7890 -6.0178 -7.8330 9.4166 -8.1779 14.0693 4.0987 -3.8846 6.3856 -0.0000 -0.0000 0.0000 -88.9801 0.8940 0.5569 10.4351 -17.4172 -1.6027 -0.0000 -0.0000 8.5650 19.6048 25.0608 8.5795 -7.1250 0.0000 -0.0000 -10.8687 56.0475 -2.9703 -0.0000 -0.0000 0.0000 84.7333 -2.8802 25.5954 -13.8786 22.5610 -2.7814 0.0000 0.0000 19.6886 -23.0662 0.0260 -0.0111 7.1250 -0.0000 -0.0000 2.7571 -29.9458 1.0138
0.3183 18.9131 -13.1149 0.2536 -7.4230 2.4287 0.0000 0.0000 0.0000 -20.2184 -7.7929 2.4770 0.4312 4.2143 11.6802 -0.0088 14.1995 -20.0734 0.0435 -1.3464 -3.7024 0.0000 0.0000 0.0000 20.5996 21.6466 3.6265 -0.7138 -5.3994 15.0514 0.0593 -13.1647 -17.9751 -0.0440 1.3536 -3.7222 -1.4253 0.4796 1.2104 -0.9245 0.6008 -0.7272 -0.1627 0.3091 -1.4279 -10.8488 -6.0157 -7.8428 9.4605 -8.1739 14.0842 4.1229 -3.8824 6.3960 -0.0000 -0.0000 0.0000 -88.9889 0.8610 0.4639 10.4416 -17.4273 -1.6047 -0.0000 -0.0000 8.6172 19.5450 24.9671 8.5221 -7.1250 0.0000 -0.0000 -10.8870 55.9407 -2.9471 -0.0000 -0.0000 0.0000 84.7349 -2.8488 25.6753 -13.8322 22.4943 -2.7636 0.0000 0.0000 19.3496 -23.5641 0.4655 -0.2030 7.1250 -0.0000 -0.0000 2.3543 -29.4682 0.8922
0.3185 18.9133 -13.1120 0.2520 -7.4257 2.3989 0.0000 0.0000 0.0000 -20.2153 -7.7323 2.4712 0.4346 4.2304 11.7258 -0.0023 14.1547 -20.0833 0.0429 -1.3370 -3.6767 0.0000 0.0000 0.0000 20.6143 21.6295 3.6957 -0.7109 -5.3884 15.0198 0.0578 -13.1505 -17.9734 -0.0408 1.3042 -3.5862 -1.4108 0.4922 1.2377 -0.9325 0.6171 -0.7265 -0.1796 0.3172 -1.4424 -10.9397 -6.0310 -7.8073 9.5136 -8.1953 14.0958 4.1539 -3.8948 6.4019 0.0000 -0.0000 0.0000 -88.9647 0.8621 0.5852 10.4477 -17.4368 -1.6065 -0.0000 -0.0000 8.4555 19.6239 25.1269 8.6093 -7.1250 0.0000 -0.0000 -10.8799 56.1179 -2.9921 0.0000 -0.0000 0.0000 84.7384 -2.8724 25.7995 -13.7825 22.4229 -2.7446 0.0000 0.0000 18.6927 -24.5064 1.2856 -0.5860 7.1250 -0.0000 -0.0000 1.6059 -28.5655 0.6427
0.3182 18.9149 -13.1098 0.2156 -7.3994 2.4333 0.0000 0.0000 0.0000 -20.1703 -7.7615 2.4475 0.4364 4.2391 11.7503 0.0092 14.0995 -20.1348 0.0365 -1.2338 -3.3923 0.0000 0.0000 0.0000 20.6455 21.6366 3.6912 -0.7090 -5.3814 14.9997 0.0556 -13.1531 -18.0053 -0.0383 1.2628 -3.4722 -1.3716 0.4899 1.2209 -0.9307 0.6150 -0.7384 -0.1996 0.3158 -1.4447 -10.9442 -6.0388 -7.7744 9.5355 -8.2108 14.0764 4.1610 -3.9020 6.3928 -0.0000 0.0000 0.0000 -88.9227 0.9065 0.8015 10.4789 -17.4852 -1.6159 -0.0000 -0.0000 8.2665 19.6951 25.2945 8.6957 -7.1250 0.0000 -0.0000 -10.8851 56.3017 -3.0422 -0.0000 0.0000 0.0000 84.7620 -2.8399 25.8390 -13.7558 22.3845 -2.7344 0.0000 0.0000 18.3607 -24.6621 1.5412 -0.7075 7.1250 -0.0000 -0.0000 1.4831 -28.2829 0.6035
0.3181 18.9153 -13.1068 0.2135 -7.4110 2.4427 0.0000 0.0000 0.0000 -20.1729 -7.7793 2.4680 0.4360 4.2372 11.7451 0.0174 14.0825 -20.2031 0.0318 -1.1502 -3.1623 0.0000 0.0000 0.0000 20.6447 21.6416 3.6911 -0.7086 -5.3800 14.9958 0.0549 -13.1467 -18.0046 -0.0369 1.2404 -3.4104 -1.3882 0.4894 1.2091 -0.9200 0.6142 -0.7501 -0.1794 0.3157 -1.4503 -10.9126 -6.0270 -7.7388 9.4976 -8.1947 14.0511 4.1459 -3.8963 6.3739 0.0000 -0.0000 0.0000 -88.9383 0.9413 0.7880 10.4899 -17.5022 -1.6192 -0.0000 -0.0000 8.2820 19.5978 25.3215 8.6584 -7.1250 0.0000 -0.0000 -10.9999 56.3087 -3.0766 0.0000 -0.0000 0.0000 84.7478 -2.8263 25.8308 -13.7498 22.3759 -2.7322 0.0000 0.0000 18.2919 -24.4603 1.6451 -0.7482 7.1250 -0.0000 -0.0000 1.6388 -28.1712 0.6712
0.3177 18.9139 -13.1020 0.2152 -7.4423 2.4030 0.0000 0.0000 0.0000 -20.1900 -7.7541 2.5418 0.4347 4.2308 11.7269 0.0177 14.1007 -20.2320 0.0297 -1.1120 -3.0571 0.0000 0.0000 0.0000 20.6631 21.6367 3.7636 -0.7074 -5.3755 14.9828 0.0528 -13.1325 -18.0113 -0.0370 1.2421 -3.4152 -1.3913 0.5097 1.2044 -0.9235 0.6415 -0.7390 -0.1817 0.3292 -1.4365 -10.9201 -6.0248 -7.6877 9.5084 -8.1971 14.0457 4.1517 -3.8986 6.3643 0.0000 -0.0000 0.0000 -88.9460 0.9207 0.6784 10.4693 -17.4703 -1.6130 -0.0000 -0.0000 8.4421 19.6411 25.4554 8.7209 -7.1250 0.0000 -0.0000 -11.0191 56.4525 -3.1206 0.0000 -0.0000 0.0000 84.7647 -2.8479 25.7536 -13.7519 22.3789 -2.7329 0.0000 0.0000 18.3430 -24.3785 1.5769 -0.7145 7.1250 -0.0000 -0.0000 1.7026 -28.2472 0.6943
0.3188 18.9147 -13.0973 0.2466 -7.3923 2.3933 0.0000 0.0000 0.0000 -20.2285 -7.7172 2.5741 0.4317 4.2165 11.6865 0.0163 14.0611 -20.1606 0.0324 -1.1626 -3.1964 0.0000 0.0000 0.0000 20.6266 21.6035 3.7477 -0.7074 -5.3756 14.9829 0.0590 -13.1669 -17.9821 -0.0399 1.2899 -3.5469 -1.3903 0.4976 1.1541 -0.9512 0.6264 -0.7206 -0.2096 0.3213 -1.3891 -10.9178 -6.0102 -7.6599 9.5455 -8.1844 14.0217 4.1654 -3.8906 6.3519 0.0000 0.0000 0.0000 -88.9226 0.8985 0.6058 10.4714 -17.4735 -1.6136 -0.0000 -0.0000 8.5256 19.5681 25.6219 8.7385 -7.1250 0.0000 -0.0000 -11.1770 56.6047 -3.2075 0.0000 0.0000 0.0000 84.7993 -2.8180 25.6850 -13.7304 22.3479 -2.7247 0.0000 0.0000 18.4362 -24.4520 1.7100 -0.7774 7.1250 -0.0000 -0.0000 1.6448 -28.1001 0.6764
